HIERARCHY
ROOT Hips
{
	OFFSET 0.000000 8.830580 0.000000
	CHANNELS 6 Xposition Yposition Zposition Zrotation Yrotation Xrotation 
	JOINT Spine
	{
		OFFSET 0.000000 0.010000 0.000000
		CHANNELS 3 Zrotation Yrotation Xrotation
		JOINT Spine1
		{
			OFFSET 0.000000 2.459130 0.000000
			CHANNELS 3 Zrotation Yrotation Xrotation
			JOINT Neck
			{
				OFFSET 0.000000 2.484630 0.000000
				CHANNELS 3 Zrotation Yrotation Xrotation
				JOINT Head_virtual
				{
					OFFSET 0.000000 0.000000 0.000000
					CHANNELS 3 Zrotation Yrotation Xrotation
					JOINT Head
					{
						OFFSET 0.000000 0.927525 0.000000
						CHANNELS 3 Zrotation Yrotation Xrotation
						End Site
						{
							OFFSET 0.000000 0.000000 0.000000
						}
					}
				}
				JOINT LeftUpArm_virtual
				{
					OFFSET 0.000000 0.000000 0.000000
					CHANNELS 3 Zrotation Yrotation Xrotation
					JOINT LeftUpArm
					{
						OFFSET 1.248820 0.000000 0.000000
						CHANNELS 3 Zrotation Yrotation Xrotation
						JOINT LeftForeArm
						{
							OFFSET 2.597580 0.000000 0.000000
							CHANNELS 3 Zrotation Yrotation Xrotation
							JOINT LeftHand
							{
								OFFSET 2.455420 0.000000 0.000000
								CHANNELS 3 Zrotation Yrotation Xrotation
								End Site
								{
									OFFSET 0.000000 0.000000 0.000000
								}
							}
						}
					}
				}
				JOINT RightUpArm_virtual
				{
					OFFSET -0.000000 -0.000000 -0.000000
					CHANNELS 3 Zrotation Yrotation Xrotation
					JOINT RightUpArm
					{
						OFFSET -1.248820 -0.000000 -0.000000
						CHANNELS 3 Zrotation Yrotation Xrotation
						JOINT RightForeArm
						{
							OFFSET -2.597580 -0.000000 -0.000000
							CHANNELS 3 Zrotation Yrotation Xrotation
							JOINT RightHand
							{
								OFFSET -2.455420 -0.000000 -0.000000
								CHANNELS 3 Zrotation Yrotation Xrotation
								End Site
								{
									OFFSET 0.000000 0.000000 0.000000
								}
							}
						}
					}
				}
			}
		}
	}
	JOINT LeftUpLeg
	{
		OFFSET 1.271939 0.000000 0.000000
		CHANNELS 3 Zrotation Yrotation Xrotation
		JOINT LeftLowLeg
		{
			OFFSET 0.000000 -4.342910 0.000000
			CHANNELS 3 Zrotation Yrotation Xrotation
			JOINT LeftFoot
			{
				OFFSET 0.000000 -4.487670 0.000000
				CHANNELS 3 Zrotation Yrotation Xrotation
				JOINT LeftToeBase
				{
					OFFSET 0.000000 0.000000 1.515070
					CHANNELS 3 Zrotation Yrotation Xrotation
					End Site
					{
						OFFSET 0.000000 0.000000 0.000000
					}
				}
			}
		}
	}
	JOINT RightUpLeg
	{
		OFFSET -1.271939 0.000000 0.000000
		CHANNELS 3 Zrotation Yrotation Xrotation
		JOINT RightLowLeg
		{
			OFFSET 0.000000 -4.342910 0.000000
			CHANNELS 3 Zrotation Yrotation Xrotation
			JOINT RightFoot
			{
				OFFSET 0.000000 -4.487670 0.000000
				CHANNELS 3 Zrotation Yrotation Xrotation
				JOINT RightToeBase
				{
					OFFSET 0.000000 0.000000 1.515070
					CHANNELS 3 Zrotation Yrotation Xrotation
					End Site
					{
						OFFSET 0.000000 0.000000 0.000000
					}
				}
			}
		}
	}
}
MOTION
Frames: 17
Frame Time: 0.041667
-21.212636 9.256516 51.591278 -173.349678 25.134750 -179.630254 5.983732 -1.359344 -22.039128 -1.278410 -1.670802 29.970946 0.000000 0.000000 0.000000 -9.335045 5.854946 -3.203315 0.542759 10.633558 -63.801893 -30.835600 0.277812 -7.987180 -36.078201 5.660050 28.888201 0.000000 -25.060101 0.000000 3.494670 9.772110 -4.329800 29.681601 -0.271394 -2.306420 37.549900 4.872150 20.847000 0.000000 24.948500 0.000000 1.881470 -0.211147 -2.651970 9.794881 20.823662 12.000401 0.000000 0.000000 -0.547676 -7.837721 9.103912 7.052918 0.000000 0.000000 -9.282090 5.023315 0.516828 6.913432 0.000000 0.000000 7.007910 18.863161 -28.746952 6.807375 0.000000 0.000000 -9.959300 
-21.206337 9.256013 51.590668 -173.293966 25.303831 -179.517985 5.966440 -1.270967 -22.081018 -1.249511 -1.575346 30.038721 0.000000 0.000000 0.000000 -9.536571 5.918009 -3.787577 0.673688 10.433380 -63.863424 -30.818600 1.866140 -6.138850 -36.685001 2.985790 28.922001 0.000000 -23.264000 0.000000 2.015560 10.139700 -6.240650 29.622101 -0.699054 -2.291190 37.645401 5.398980 21.294399 0.000000 25.309099 0.000000 1.852870 -0.361897 -2.575890 9.860013 20.936276 12.043682 0.000000 0.000000 -0.670739 -7.890707 9.148193 7.062066 0.000000 0.000000 -9.267470 5.089031 0.638483 7.055400 0.000000 0.000000 6.577910 18.762246 -28.739704 6.963422 0.000000 0.000000 -9.903650 
-21.200912 9.255846 51.592748 -173.262155 25.473270 -179.424595 5.996312 -1.058619 -22.087169 -1.496080 -1.526330 29.742814 0.000000 0.000000 0.000000 -9.223157 5.769475 -3.464952 0.357456 10.657217 -64.135402 -30.767000 0.397372 -7.873520 -36.447300 6.536140 28.759800 0.000000 -22.959101 0.000000 0.242139 10.521700 -6.390300 29.714300 -0.319237 -2.205610 37.644901 4.855430 21.309500 0.000000 25.739599 0.000000 1.821660 -0.327104 -2.490430 9.893005 21.003795 12.054147 0.000000 0.000000 -0.751078 -7.954473 9.232186 7.073102 0.000000 0.000000 -9.267410 5.136431 0.766043 7.136711 0.000000 0.000000 6.254550 18.665626 -28.726417 7.102117 0.000000 0.000000 -9.876850 
-21.195791 9.255469 51.594821 -173.252762 25.579882 -179.342056 6.025293 -0.836655 -22.088779 -1.744625 -1.456870 29.830020 0.000000 0.000000 0.000000 -9.139953 5.733772 -4.070668 0.524624 10.580110 -64.157813 -30.570200 1.881710 -6.115410 -37.041000 3.859670 28.873501 0.000000 -21.405500 0.000000 -0.888678 10.737500 -8.008810 29.812201 -0.743853 -2.285950 37.747700 5.293610 21.802299 0.000000 25.908501 0.000000 1.846280 -0.201469 -2.607570 9.905909 21.062932 12.000216 0.000000 0.000000 -0.739419 -7.995286 9.271098 7.054228 0.000000 0.000000 -9.260860 5.149322 0.751352 7.210323 0.000000 0.000000 5.955220 18.573115 -28.644844 7.224739 0.000000 0.000000 -9.821410 
-21.192146 9.255435 51.597878 -173.261619 25.613718 -179.305650 6.097095 -0.555403 -22.058691 -2.187267 -1.446555 29.748736 0.000000 0.000000 0.000000 -8.776186 5.580374 -4.188886 0.417400 10.734230 -64.298189 -30.313801 1.856410 -6.033730 -37.229000 4.178140 28.660900 0.000000 -20.807699 0.000000 -1.939190 11.099700 -8.278550 30.012800 -0.767437 -2.289170 37.791801 5.219550 21.996901 0.000000 26.095301 0.000000 1.840290 -0.057979 -2.851900 9.904637 21.087934 11.918423 0.000000 0.000000 -0.657754 -8.015379 9.288231 7.030635 0.000000 0.000000 -9.279390 5.149853 0.707642 7.258126 0.000000 0.000000 5.767530 18.506048 -28.581552 7.309559 0.000000 0.000000 -9.790150 
-21.188946 9.255766 51.602432 -173.281708 25.584570 -179.300694 6.159162 -0.307009 -22.023032 -2.658353 -1.457971 29.777012 0.000000 0.000000 0.000000 -8.400803 5.443053 -4.437122 0.358089 10.886051 -64.377437 -30.060900 1.858990 -6.021570 -37.351898 4.367680 28.517799 0.000000 -20.441099 0.000000 -2.521930 11.714000 -7.964380 30.214600 -0.768921 -2.315810 37.866901 5.179950 22.040800 0.000000 26.288099 0.000000 1.912230 -0.176090 -2.820010 9.897574 21.076898 11.809727 0.000000 0.000000 -0.528324 -8.043613 9.287534 6.994795 0.000000 0.000000 -9.257170 5.163653 0.710088 7.290513 0.000000 0.000000 5.654270 18.464744 -28.615212 7.338893 0.000000 0.000000 -9.802540 
-21.186592 9.256365 51.607479 -173.308464 25.521414 -179.333704 6.212040 -0.080711 -21.975723 -3.100994 -1.467345 29.858785 0.000000 0.000000 0.000000 -8.101423 5.375940 -4.676595 0.345359 11.035954 -64.420932 -29.821699 1.813040 -6.062830 -37.420898 4.518070 28.399799 0.000000 -20.284201 0.000000 -2.889680 11.924100 -7.076170 30.402901 -0.752540 -2.328910 37.927399 5.135840 22.120100 0.000000 26.352600 0.000000 1.882240 -0.118808 -2.961940 9.904458 21.108846 11.710400 0.000000 0.000000 -0.370757 -8.019597 9.213603 6.979193 0.000000 0.000000 -9.217770 5.171584 0.673603 7.313858 0.000000 0.000000 5.619990 18.450419 -28.650375 7.327495 0.000000 0.000000 -9.781680 
-21.184854 9.257445 51.612622 -173.338039 25.406754 -179.383846 6.226918 0.084192 -21.950924 -3.421940 -1.461456 29.837989 0.000000 0.000000 0.000000 -7.709922 5.212915 -4.487176 0.246815 11.220420 -64.536179 -29.717699 0.403596 -7.575070 -37.029900 7.237730 28.416599 0.000000 -20.951300 0.000000 -2.774380 12.149900 -5.639930 30.500999 -0.413971 -2.347070 37.983200 4.622580 21.907400 0.000000 26.341801 0.000000 1.969260 0.101926 -2.871090 9.914916 21.143133 11.615092 0.000000 0.000000 -0.216395 -7.990816 9.122329 6.990113 0.000000 0.000000 -9.284640 5.168905 0.550046 7.348490 0.000000 0.000000 5.588880 18.383545 -28.666809 7.371390 0.000000 0.000000 -9.786930 
-21.184015 9.257890 51.618243 -173.370951 25.301802 -179.432561 6.243483 0.255311 -21.912229 -3.709425 -1.430200 29.975995 0.000000 0.000000 0.000000 -7.334018 5.052655 -4.665562 0.287197 11.322198 -64.506665 -29.598101 0.338634 -7.567720 -36.965900 7.085890 28.447901 0.000000 -21.114599 0.000000 -2.738440 12.381700 -4.611490 30.586700 -0.438557 -2.358950 38.062199 4.620430 21.924101 0.000000 26.232500 0.000000 1.982430 0.076362 -3.012290 9.913730 21.162384 11.531572 0.000000 0.000000 -0.101906 -7.978042 9.017112 6.988844 0.000000 0.000000 -9.190780 5.167521 0.493720 7.339394 0.000000 0.000000 5.634050 18.408493 -28.703044 7.325660 0.000000 0.000000 -9.799890 
-21.184184 9.258710 51.623554 -173.402157 25.172007 -179.480630 6.375819 0.609910 -21.921406 -4.341364 -1.445502 30.218120 0.000000 0.000000 0.000000 -6.840666 4.979941 -4.912482 0.297848 11.598541 -64.441638 -29.265400 0.240364 -7.649170 -36.905499 6.898000 28.612101 0.000000 -21.354799 0.000000 -2.516370 12.318400 -3.856920 30.871000 -0.407204 -2.373230 38.096500 4.582940 21.915899 0.000000 26.137899 0.000000 1.981240 0.031217 -3.031280 9.895622 21.110788 11.456244 0.000000 0.000000 -0.021800 -7.898014 8.975580 7.032652 0.000000 0.000000 -9.253320 5.149174 0.355334 7.324682 0.000000 0.000000 5.689450 18.419349 -28.683573 7.317495 0.000000 0.000000 -9.810000 
-21.184957 9.259328 51.627652 -173.427476 25.008094 -179.538020 6.491069 0.901184 -21.940355 -4.872687 -1.461809 30.445659 0.000000 0.000000 0.000000 -6.374747 4.895552 -5.126896 0.303246 11.842543 -64.298496 -29.004900 0.124573 -7.697900 -36.813801 6.597350 28.958099 0.000000 -21.629900 0.000000 -2.062880 12.347200 -3.436920 31.081301 -0.375855 -2.379880 38.151100 4.523730 21.848801 0.000000 25.969299 0.000000 2.059690 -0.154515 -2.944540 9.891393 21.081819 11.421419 0.000000 0.000000 -0.003125 -7.855100 8.894927 7.084328 0.000000 0.000000 -9.345280 5.126580 0.191854 7.347901 0.000000 0.000000 5.710020 18.467901 -28.650268 7.312931 0.000000 0.000000 -9.816390 
-21.186855 9.259705 51.632430 -173.472943 24.763351 -179.614331 6.564416 1.093582 -21.917699 -5.325754 -1.507159 30.594019 0.000000 0.000000 0.000000 -5.924030 4.806174 -5.207963 0.334147 12.072682 -64.143366 -28.799801 0.033689 -7.684020 -36.714298 6.165600 29.240499 0.000000 -21.914900 0.000000 -1.555690 12.055600 -3.012110 31.279200 -0.328679 -2.395880 38.153400 4.430750 21.836000 0.000000 25.700399 0.000000 2.173340 -0.120727 -3.024700 9.835742 20.891506 11.339825 0.000000 0.000000 0.050721 -7.802642 8.877846 7.108737 0.000000 0.000000 -9.149480 5.086875 0.009280 7.396940 0.000000 0.000000 5.707620 18.550859 -28.639379 7.269177 0.000000 0.000000 -9.807150 
-21.188813 9.259797 51.635902 -173.532243 24.509952 -179.684472 6.611152 1.215539 -21.904585 -5.684237 -1.536101 30.872208 0.000000 0.000000 0.000000 -5.694572 4.825722 -5.679252 0.599763 12.168168 -63.848676 -28.605000 1.203490 -6.221530 -36.911400 3.156320 30.439199 0.000000 -21.635099 0.000000 -0.040413 11.206900 -3.439350 31.436399 -0.613176 -2.421430 38.163502 4.772720 22.078400 0.000000 25.353701 0.000000 2.248150 -0.219334 -3.127540 9.767056 20.707814 11.278792 0.000000 0.000000 0.049428 -7.749060 8.847743 7.159583 0.000000 0.000000 -9.146610 5.049308 -0.043288 7.465222 0.000000 0.000000 5.666830 18.717618 -28.713220 7.174811 0.000000 0.000000 -9.853440 
-21.192035 9.259831 51.640854 -173.612580 24.175050 -179.776413 6.553900 1.135841 -21.868919 -5.828296 -1.589157 31.000940 0.000000 0.000000 0.000000 -5.579817 4.871618 -5.778708 0.823372 12.241433 -63.746808 -28.561199 1.102800 -6.283010 -36.795601 2.657170 30.427601 0.000000 -22.151899 0.000000 0.196646 11.138600 -3.256140 31.528601 -0.594190 -2.435790 38.097599 4.761520 22.072201 0.000000 24.971399 0.000000 2.286180 -0.120229 -3.046250 9.680466 20.502245 11.183337 0.000000 0.000000 0.075605 -7.686582 8.756358 7.220761 0.000000 0.000000 -9.155000 5.010966 -0.054257 7.552973 0.000000 0.000000 5.608070 18.926483 -28.884017 7.013716 0.000000 0.000000 -9.850470 
-21.196122 9.260149 51.644997 -173.683782 23.818483 -179.855241 6.463420 0.978746 -21.873857 -5.859210 -1.646373 31.042534 0.000000 0.000000 0.000000 -5.395754 4.826396 -5.624634 0.889299 12.322363 -63.662015 -28.572599 0.011295 -7.358630 -36.436199 4.042860 30.381599 0.000000 -23.191200 0.000000 0.699733 11.009800 -2.550050 31.515600 -0.335332 -2.457780 38.050598 4.389460 21.811899 0.000000 24.677401 0.000000 2.439950 -0.229032 -2.612620 9.587785 20.267041 11.075787 0.000000 0.000000 0.097798 -7.618048 8.677185 7.277562 0.000000 0.000000 -9.138790 4.994480 -0.004311 7.665970 0.000000 0.000000 5.484620 19.259423 -29.141517 6.747356 0.000000 0.000000 -9.673940 
-21.202414 9.260612 51.648507 -173.741607 23.400596 -179.930903 6.355914 0.724449 -21.865937 -5.757086 -1.706891 31.190190 0.000000 0.000000 0.000000 -5.293271 4.745405 -5.728529 1.052560 12.271364 -63.551519 -28.668400 -0.208026 -7.405790 -36.276699 3.532200 30.508900 0.000000 -23.809401 0.000000 1.361480 10.600300 -2.170220 31.433399 -0.317070 -2.590960 38.025501 4.252140 21.652399 0.000000 24.381901 0.000000 2.470470 -0.412618 -2.486430 9.493457 20.028015 10.936494 0.000000 0.000000 0.146206 -7.506631 8.579695 7.318348 0.000000 0.000000 -9.313370 4.966776 -0.112426 7.796705 0.000000 0.000000 5.325080 19.226330 -29.406739 6.777204 0.000000 0.000000 -9.774920 
-21.208742 9.260974 51.651917 -173.795643 22.995604 -179.932625 6.261158 0.499318 -21.910976 -5.740135 -1.784096 31.300286 0.000000 0.000000 0.000000 -4.979982 4.579686 -5.852990 1.155689 12.298140 -63.362621 -28.707100 -0.404730 -7.349580 -36.107601 2.927950 30.336800 0.000000 -24.561701 0.000000 1.642980 10.535100 -1.986450 31.375601 -0.266903 -2.653270 38.009800 4.091510 21.477501 0.000000 24.059500 0.000000 2.469390 -0.468768 -2.653500 9.377750 19.798460 10.729367 0.000000 0.000000 0.195526 -7.418386 8.468684 7.371797 0.000000 0.000000 -9.153480 4.951559 -0.161220 7.858151 0.000000 0.000000 5.154150 19.444917 -29.671552 6.592114 0.000000 0.000000 -9.547780 
